<svg data-v-fde0c5aa="" xmlns="http://www.w3.org/2000/svg" viewBox="0 0 300 300" class="iconLeft"><!----><defs data-v-fde0c5aa=""><!----></defs><rect data-v-fde0c5aa="" fill="#FDF7EC" x="0" y="0" width="300px" height="300px" class="logo-background-square"></rect><defs data-v-fde0c5aa=""><!----></defs><g data-v-fde0c5aa="" id="d6157b8c-f806-489f-b809-85473306e3da" fill="#342103" transform="matrix(1.8575842242467682,0,0,1.8575842242467682,85.03413561154882,131.91641732894348)"><path d="M1.46 12.96C1.46 13.15 1.61 13.30 1.79 13.30C1.99 13.30 2.14 13.15 2.14 12.96L2.14 9.11L4.56 9.09C6.10 9.09 7.35 7.84 7.35 6.30C7.35 4.76 6.10 3.50 4.56 3.50L1.83 3.50L1.79 3.50C1.61 3.50 1.46 3.65 1.46 3.84ZM2.14 8.43L2.14 4.19L4.56 4.19C5.73 4.19 6.68 5.14 6.68 6.30C6.68 7.46 5.73 8.41 4.56 8.43ZM9.46 12.96C9.46 13.16 9.62 13.30 9.81 13.30C9.98 13.30 10.14 13.16 10.14 12.96L10.14 9.95C10.14 9.93 10.14 9.90 10.16 9.84C10.26 9.56 10.53 8.86 10.99 8.25C11.47 7.63 12.08 7.13 12.98 7.13C13.16 7.13 13.31 6.97 13.31 6.79C13.31 6.59 13.16 6.45 12.98 6.45C11.66 6.45 10.75 7.32 10.23 8.13C10.19 8.19 10.16 8.25 10.14 8.30L10.14 6.79C10.14 6.59 9.98 6.45 9.81 6.45C9.62 6.45 9.46 6.59 9.46 6.79L9.46 12.96ZM14.94 9.87L14.94 9.87C14.94 11.73 16.39 13.30 18.19 13.30L18.19 13.30C19.99 13.30 21.43 11.73 21.43 9.87L21.43 9.87C21.43 8.01 19.99 6.44 18.19 6.44L18.19 6.44C16.39 6.44 14.94 8.01 14.94 9.87ZM15.61 9.87L15.61 9.87C15.61 8.34 16.79 7.10 18.19 7.10L18.19 7.10C19.59 7.10 20.76 8.34 20.76 9.87L20.76 9.87C20.76 11.40 19.59 12.63 18.19 12.63L18.19 12.63C16.79 12.63 15.61 11.40 15.61 9.87ZM23.51 4.86L23.51 4.86C23.51 5.04 23.69 5.21 23.86 5.21L23.86 5.21C24.04 5.21 24.19 5.04 24.19 4.86L24.19 4.54L24.19 4.54C24.19 4.35 24.04 4.20 23.86 4.20L23.86 4.20C23.69 4.20 23.51 4.35 23.51 4.54ZM22.64 15.65L22.64 15.65C22.64 15.83 22.78 15.97 22.97 15.97L22.97 15.97C23.65 15.97 24.16 15.46 24.16 14.78L24.16 6.79L24.16 6.79C24.16 6.59 24.01 6.44 23.83 6.44L23.83 6.44C23.65 6.44 23.48 6.59 23.48 6.79L23.48 14.78L23.48 14.78C23.48 15.06 23.24 15.30 22.97 15.30L22.97 15.30C22.78 15.30 22.64 15.46 22.64 15.65ZM30.34 13.30C31.50 13.30 32.52 12.68 33.11 11.75C33.21 11.58 33.15 11.38 33.00 11.27C32.86 11.19 32.65 11.21 32.55 11.38C32.09 12.15 31.25 12.63 30.34 12.63C28.92 12.63 27.75 11.49 27.68 10.00L33.31 10.00C33.49 10.00 33.64 9.87 33.64 9.69L33.64 9.65L33.64 9.63C33.50 7.84 32.10 6.44 30.34 6.44C28.49 6.44 27.01 7.98 27.01 9.88C27.01 11.76 28.49 13.30 30.34 13.30ZM30.34 7.11C31.60 7.11 32.69 8.05 32.91 9.34L27.72 9.34C27.97 8.04 29.05 7.11 30.34 7.11ZM39.06 13.30L39.06 13.30C39.06 13.30 39.06 13.30 39.06 13.30L39.06 13.30C39.87 13.30 40.64 13.02 41.22 12.57L41.22 12.57C41.38 12.45 41.41 12.24 41.29 12.08L41.29 12.08C41.17 11.96 40.98 11.91 40.82 12.03L40.82 12.03L40.82 12.03C40.33 12.40 39.72 12.63 39.06 12.63L39.06 12.63C37.46 12.63 36.20 11.40 36.20 9.86L36.20 9.86C36.20 8.34 37.46 7.10 39.06 7.10L39.06 7.10C39.72 7.10 40.33 7.32 40.82 7.71L40.82 7.71C40.98 7.83 41.17 7.78 41.29 7.66L41.29 7.66C41.41 7.50 41.38 7.29 41.24 7.20L41.24 7.20C40.64 6.72 39.87 6.44 39.06 6.44L39.06 6.44C37.10 6.44 35.53 7.95 35.53 9.86L35.53 9.86C35.53 11.79 37.10 13.30 39.06 13.30ZM46.07 6.44L45.19 6.44L45.19 3.89C45.19 3.72 45.01 3.56 44.83 3.56C44.66 3.56 44.49 3.72 44.49 3.89L44.49 6.44L43.64 6.44C43.30 6.44 43.30 6.61 43.30 6.78C43.30 6.94 43.30 7.11 43.64 7.11L44.49 7.11L44.49 12.11C44.49 12.80 45.01 13.30 45.70 13.30C45.86 13.30 46.05 13.13 46.05 12.96C46.05 12.80 45.86 12.61 45.70 12.61C45.53 12.61 45.19 12.45 45.19 12.11L45.19 7.11L46.07 7.11C46.24 7.11 46.41 6.94 46.41 6.78C46.41 6.61 46.24 6.44 46.07 6.44ZM53.97 12.96C53.97 13.15 54.11 13.30 54.29 13.30L54.31 13.30L54.35 13.30L57.11 13.30C58.65 13.30 59.91 12.05 59.91 10.50C59.91 9.27 59.09 8.23 57.99 7.85C58.55 7.41 58.93 6.72 58.93 5.95C58.93 4.59 57.83 3.50 56.49 3.50L54.35 3.50L54.31 3.50C54.12 3.50 53.97 3.65 53.97 3.84ZM54.66 12.61L54.66 8.39L57.11 8.39C58.27 8.39 59.21 9.34 59.22 10.50C59.21 11.68 58.27 12.61 57.11 12.61ZM54.66 7.69L54.66 4.19L56.49 4.19C57.46 4.19 58.24 4.97 58.24 5.95C58.24 6.90 57.46 7.69 56.49 7.69ZM61.99 10.50L61.99 10.50C61.99 12.04 63.22 13.30 64.76 13.30L64.76 13.30C66.33 13.30 67.58 12.04 67.58 10.50L67.58 6.76L67.58 6.76C67.58 6.57 67.42 6.43 67.23 6.43L67.23 6.43C67.06 6.43 66.89 6.57 66.89 6.76L66.89 6.76L66.89 10.50L66.89 10.50C66.89 11.68 65.94 12.61 64.76 12.63L64.76 12.63C63.60 12.61 62.66 11.68 62.66 10.50L62.66 6.76L62.66 6.76C62.66 6.57 62.51 6.43 62.33 6.43L62.33 6.43C62.15 6.43 61.99 6.57 61.99 6.76L61.99 10.50ZM76.20 12.96C76.20 13.15 76.36 13.30 76.55 13.30C76.73 13.30 76.89 13.15 76.89 12.96L76.89 9.88L76.89 9.74L76.89 3.84C76.89 3.65 76.73 3.50 76.55 3.50C76.36 3.50 76.20 3.65 76.20 3.84L76.20 7.78C75.60 6.97 74.65 6.44 73.57 6.44C71.72 6.44 70.25 7.98 70.25 9.88C70.25 11.76 71.72 13.30 73.57 13.30C74.65 13.30 75.60 12.78 76.20 11.97ZM73.57 12.61C72.13 12.61 70.94 11.40 70.94 9.88C70.94 8.36 72.13 7.13 73.57 7.13C74.98 7.13 76.15 8.30 76.20 9.77L76.20 10.00C76.15 11.45 74.98 12.61 73.57 12.61ZM85.44 12.96C85.44 13.15 85.60 13.30 85.79 13.30C85.97 13.30 86.13 13.15 86.13 12.96L86.13 9.88L86.13 9.74L86.13 3.84C86.13 3.65 85.97 3.50 85.79 3.50C85.60 3.50 85.44 3.65 85.44 3.84L85.44 7.78C84.84 6.97 83.89 6.44 82.81 6.44C80.96 6.44 79.49 7.98 79.49 9.88C79.49 11.76 80.96 13.30 82.81 13.30C83.89 13.30 84.84 12.78 85.44 11.97ZM82.81 12.61C81.37 12.61 80.18 11.40 80.18 9.88C80.18 8.36 81.37 7.13 82.81 7.13C84.22 7.13 85.39 8.30 85.44 9.77L85.44 10.00C85.39 11.45 84.22 12.61 82.81 12.61ZM88.62 10.49C88.62 12.03 89.87 13.27 91.39 13.29C92.25 13.29 93.00 12.89 93.52 12.31L93.52 12.75C93.51 14.17 92.36 15.30 90.93 15.30C90.54 15.30 90.15 15.20 89.81 15.04C89.64 14.99 89.46 15.04 89.38 15.20C89.29 15.36 89.36 15.55 89.52 15.65C89.95 15.85 90.43 15.97 90.93 15.97C92.74 15.97 94.19 14.55 94.19 12.75L94.19 10.61L94.19 10.49L94.19 6.76C94.19 6.72 94.18 6.66 94.15 6.62C94.14 6.58 94.09 6.54 94.07 6.51C94.01 6.48 93.95 6.45 93.90 6.44L93.86 6.44L93.81 6.44C93.80 6.44 93.79 6.45 93.77 6.45L93.74 6.45C93.70 6.47 93.65 6.50 93.62 6.54C93.60 6.54 93.60 6.55 93.59 6.55C93.59 6.57 93.58 6.58 93.58 6.59C93.53 6.64 93.52 6.71 93.52 6.76L93.52 10.49C93.51 11.66 92.57 12.60 91.39 12.60C90.23 12.60 89.29 11.66 89.29 10.49L89.29 6.76C89.29 6.58 89.14 6.44 88.94 6.44C88.77 6.44 88.62 6.58 88.62 6.76L88.62 10.49Z"></path></g><defs data-v-fde0c5aa=""><linearGradient data-v-fde0c5aa="" gradientTransform="rotate(25)" id="e7ac394c-cbdb-49cc-89c9-17fa0d47263f" x1="0%" y1="0%" x2="100%" y2="0%"><stop data-v-fde0c5aa="" offset="0%" stop-color="#E56500" stop-opacity="1"></stop><stop data-v-fde0c5aa="" offset="100%" stop-color="#EBC51D" stop-opacity="1"></stop></linearGradient></defs><g data-v-fde0c5aa="" id="688f4835-a422-408e-99e1-a9867040f4d8" stroke="none" fill="url(#e7ac394c-cbdb-49cc-89c9-17fa0d47263f)" transform="matrix(0.5791018943096425,0,0,0.5791018943096425,38.841891685852744,131.46873938209143)"><path d="M55.375 41.219l-4.4 3.516L47.6 42.2a1 1 0 0 0-1.359.15l-6 7 1.518 1.3 5.39-6.288L50.4 46.8a1 1 0 0 0 1.225-.019l5-4zM42 52h2v6h-2z"></path><path d="M46 47h2v11h-2zM50 50h2v8h-2zM54 49h2v9h-2zM45 6a1 1 0 0 0-1 1v5a1 1 0 0 0 1 1h5a1 1 0 0 0 1-1 6.006 6.006 0 0 0-6-6zm1 5V8.127A4.014 4.014 0 0 1 48.873 11z"></path><path d="M42 9a6 6 0 1 0 6 6 1 1 0 0 0-1-1h-4v-4a1 1 0 0 0-1-1zm3.873 7A4 4 0 1 1 41 11.127V15a1 1 0 0 0 1 1zM47 28a3 3 0 1 0 3 3 3 3 0 0 0-3-3zm0 4a1 1 0 1 1 1-1 1 1 0 0 1-1 1z"></path><path d="M53.359 26.159a7.965 7.965 0 0 0-1.518-1.518 1 1 0 0 0-.909-.157l-1.241.4a5.627 5.627 0 0 0-.268-.112l-.6-1.156a1 1 0 0 0-.754-.533 7.349 7.349 0 0 0-2.146 0 1 1 0 0 0-.754.533l-.6 1.156a6.097 6.097 0 0 0-.268.112l-1.241-.4a1 1 0 0 0-.909.158 7.965 7.965 0 0 0-1.518 1.518 1 1 0 0 0-.157.909l.4 1.241c-.04.089-.077.178-.112.268l-1.156.6a1 1 0 0 0-.533.754 7.326 7.326 0 0 0 0 2.146 1 1 0 0 0 .533.754l1.156.6c.035.089.072.179.112.268l-.4 1.241a1 1 0 0 0 .158.909 7.989 7.989 0 0 0 1.517 1.518 1.007 1.007 0 0 0 .909.158l1.242-.4c.089.04.178.077.268.112l.6 1.156a1 1 0 0 0 .754.533 7.326 7.326 0 0 0 2.146 0 1 1 0 0 0 .754-.533l.6-1.156c.089-.035.179-.072.268-.112l1.241.4a1.01 1.01 0 0 0 .909-.158 7.965 7.965 0 0 0 1.518-1.518 1 1 0 0 0 .157-.909l-.4-1.241c.04-.089.077-.178.112-.268l1.156-.6a1 1 0 0 0 .533-.754 7.326 7.326 0 0 0 0-2.146 1 1 0 0 0-.533-.754l-1.156-.6a5.627 5.627 0 0 0-.112-.268l.4-1.241a1 1 0 0 0-.158-.91zM52.99 31.3l-1.025.528a1 1 0 0 0-.5.589 4.6 4.6 0 0 1-.31.742 1 1 0 0 0-.064.764l.349 1.1a5.654 5.654 0 0 1-.424.424l-1.1-.35a1 1 0 0 0-.766.066 4.628 4.628 0 0 1-.739.309 1 1 0 0 0-.589.5L47.3 36.99a4.234 4.234 0 0 1-.6 0l-.528-1.025a1 1 0 0 0-.589-.5 4.6 4.6 0 0 1-.742-.31 1.01 1.01 0 0 0-.764-.065l-1.1.35a5.848 5.848 0 0 1-.424-.424l.35-1.1a1 1 0 0 0-.066-.766 4.628 4.628 0 0 1-.309-.739 1 1 0 0 0-.5-.589L41.01 31.3c-.01-.1-.01-.2-.01-.3s0-.2.01-.3l1.025-.528a1 1 0 0 0 .5-.589 4.6 4.6 0 0 1 .31-.742 1 1 0 0 0 .064-.764l-.349-1.1a5.654 5.654 0 0 1 .424-.424l1.1.35a1.007 1.007 0 0 0 .766-.066 4.628 4.628 0 0 1 .739-.309 1 1 0 0 0 .589-.5l.522-1.018a4.234 4.234 0 0 1 .6 0l.528 1.025a1 1 0 0 0 .589.5 4.6 4.6 0 0 1 .742.31 1 1 0 0 0 .764.064l1.1-.349a5.654 5.654 0 0 1 .424.424l-.349 1.1a1 1 0 0 0 .064.764 4.6 4.6 0 0 1 .31.742 1 1 0 0 0 .5.589l1.025.528c.007.1.01.2.01.3s-.007.193-.017.293zM60 7h2v2h-2zM61 2H29a1 1 0 0 0-1 1v18h2V4h30v1h2V3a1 1 0 0 0-1-1zM28 31h2v22h-2zM28 55h2v2h-2z"></path><path d="M60 60H30v-1h-2v2a1 1 0 0 0 1 1h32a1 1 0 0 0 1-1V11h-2zM18 51.787V29h10a1 1 0 0 0 1-1v-4a1 1 0 0 0-1-1H17.2l-.946-.4A4.949 4.949 0 0 0 17 20a5 5 0 0 0-10 0 4.918 4.918 0 0 0 .466 2.087A6.545 6.545 0 0 0 2 28.534V38a1 1 0 0 0 1 1h3v12.787l-3.914 8.807A1 1 0 0 0 3 62h18a1 1 0 0 0 .914-1.406zM4 37v-8.466A4.539 4.539 0 0 1 8.534 24h.846a1 1 0 0 0 .658-1.753A2.955 2.955 0 0 1 9 20a3 3 0 0 1 6 0 2.955 2.955 0 0 1-1.038 2.247 1 1 0 0 0 .27 1.675l2.38 1A1 1 0 0 0 17 25h10v2H17a1 1 0 0 0-1 1v23h-3V37h-2v14H8V27H6v10zm.539 23l3.11-7h8.7l3.11 7zM5 3.586l1.414-1.414 1.414 1.414-1.414 1.415zM2.172 6.414l1.414-1.415L5 6.414 3.586 7.828z"></path><path d="M5 6.414L6.414 5l1.414 1.414-1.414 1.414zM2.172 3.586l1.414-1.414 1.415 1.414L3.586 5zM18.12 9.465l1.415-1.414 1.414 1.414-1.414 1.415zM15.293 12.293l1.414-1.414 1.414 1.414-1.414 1.414z"></path><path d="M18.12 12.293l1.415-1.414 1.414 1.414-1.414 1.414zM15.293 9.465l1.414-1.414 1.415 1.414-1.415 1.414z"></path></g><!----></svg>