<svg data-v-423bf9ae="" xmlns="http://www.w3.org/2000/svg" viewBox="0 0 60.00016403198242 60" class="icon"><!----><!----><!----><!----><g data-v-423bf9ae="" id="153d4347-af64-413a-a26a-6d5e6a716bf7" transform="matrix(1,0,0,1,-1.9998351335525513,-2)" stroke="none" fill="black"><path d="M55.375 41.219l-4.4 3.516L47.6 42.2a1 1 0 0 0-1.359.15l-6 7 1.518 1.3 5.39-6.288L50.4 46.8a1 1 0 0 0 1.225-.019l5-4zM42 52h2v6h-2z"></path><path d="M46 47h2v11h-2zM50 50h2v8h-2zM54 49h2v9h-2zM45 6a1 1 0 0 0-1 1v5a1 1 0 0 0 1 1h5a1 1 0 0 0 1-1 6.006 6.006 0 0 0-6-6zm1 5V8.127A4.014 4.014 0 0 1 48.873 11z"></path><path d="M42 9a6 6 0 1 0 6 6 1 1 0 0 0-1-1h-4v-4a1 1 0 0 0-1-1zm3.873 7A4 4 0 1 1 41 11.127V15a1 1 0 0 0 1 1zM47 28a3 3 0 1 0 3 3 3 3 0 0 0-3-3zm0 4a1 1 0 1 1 1-1 1 1 0 0 1-1 1z"></path><path d="M53.359 26.159a7.965 7.965 0 0 0-1.518-1.518 1 1 0 0 0-.909-.157l-1.241.4a5.627 5.627 0 0 0-.268-.112l-.6-1.156a1 1 0 0 0-.754-.533 7.349 7.349 0 0 0-2.146 0 1 1 0 0 0-.754.533l-.6 1.156a6.097 6.097 0 0 0-.268.112l-1.241-.4a1 1 0 0 0-.909.158 7.965 7.965 0 0 0-1.518 1.518 1 1 0 0 0-.157.909l.4 1.241c-.04.089-.077.178-.112.268l-1.156.6a1 1 0 0 0-.533.754 7.326 7.326 0 0 0 0 2.146 1 1 0 0 0 .533.754l1.156.6c.035.089.072.179.112.268l-.4 1.241a1 1 0 0 0 .158.909 7.989 7.989 0 0 0 1.517 1.518 1.007 1.007 0 0 0 .909.158l1.242-.4c.089.04.178.077.268.112l.6 1.156a1 1 0 0 0 .754.533 7.326 7.326 0 0 0 2.146 0 1 1 0 0 0 .754-.533l.6-1.156c.089-.035.179-.072.268-.112l1.241.4a1.01 1.01 0 0 0 .909-.158 7.965 7.965 0 0 0 1.518-1.518 1 1 0 0 0 .157-.909l-.4-1.241c.04-.089.077-.178.112-.268l1.156-.6a1 1 0 0 0 .533-.754 7.326 7.326 0 0 0 0-2.146 1 1 0 0 0-.533-.754l-1.156-.6a5.627 5.627 0 0 0-.112-.268l.4-1.241a1 1 0 0 0-.158-.91zM52.99 31.3l-1.025.528a1 1 0 0 0-.5.589 4.6 4.6 0 0 1-.31.742 1 1 0 0 0-.064.764l.349 1.1a5.654 5.654 0 0 1-.424.424l-1.1-.35a1 1 0 0 0-.766.066 4.628 4.628 0 0 1-.739.309 1 1 0 0 0-.589.5L47.3 36.99a4.234 4.234 0 0 1-.6 0l-.528-1.025a1 1 0 0 0-.589-.5 4.6 4.6 0 0 1-.742-.31 1.01 1.01 0 0 0-.764-.065l-1.1.35a5.848 5.848 0 0 1-.424-.424l.35-1.1a1 1 0 0 0-.066-.766 4.628 4.628 0 0 1-.309-.739 1 1 0 0 0-.5-.589L41.01 31.3c-.01-.1-.01-.2-.01-.3s0-.2.01-.3l1.025-.528a1 1 0 0 0 .5-.589 4.6 4.6 0 0 1 .31-.742 1 1 0 0 0 .064-.764l-.349-1.1a5.654 5.654 0 0 1 .424-.424l1.1.35a1.007 1.007 0 0 0 .766-.066 4.628 4.628 0 0 1 .739-.309 1 1 0 0 0 .589-.5l.522-1.018a4.234 4.234 0 0 1 .6 0l.528 1.025a1 1 0 0 0 .589.5 4.6 4.6 0 0 1 .742.31 1 1 0 0 0 .764.064l1.1-.349a5.654 5.654 0 0 1 .424.424l-.349 1.1a1 1 0 0 0 .064.764 4.6 4.6 0 0 1 .31.742 1 1 0 0 0 .5.589l1.025.528c.007.1.01.2.01.3s-.007.193-.017.293zM60 7h2v2h-2zM61 2H29a1 1 0 0 0-1 1v18h2V4h30v1h2V3a1 1 0 0 0-1-1zM28 31h2v22h-2zM28 55h2v2h-2z"></path><path d="M60 60H30v-1h-2v2a1 1 0 0 0 1 1h32a1 1 0 0 0 1-1V11h-2zM18 51.787V29h10a1 1 0 0 0 1-1v-4a1 1 0 0 0-1-1H17.2l-.946-.4A4.949 4.949 0 0 0 17 20a5 5 0 0 0-10 0 4.918 4.918 0 0 0 .466 2.087A6.545 6.545 0 0 0 2 28.534V38a1 1 0 0 0 1 1h3v12.787l-3.914 8.807A1 1 0 0 0 3 62h18a1 1 0 0 0 .914-1.406zM4 37v-8.466A4.539 4.539 0 0 1 8.534 24h.846a1 1 0 0 0 .658-1.753A2.955 2.955 0 0 1 9 20a3 3 0 0 1 6 0 2.955 2.955 0 0 1-1.038 2.247 1 1 0 0 0 .27 1.675l2.38 1A1 1 0 0 0 17 25h10v2H17a1 1 0 0 0-1 1v23h-3V37h-2v14H8V27H6v10zm.539 23l3.11-7h8.7l3.11 7zM5 3.586l1.414-1.414 1.414 1.414-1.414 1.415zM2.172 6.414l1.414-1.415L5 6.414 3.586 7.828z"></path><path d="M5 6.414L6.414 5l1.414 1.414-1.414 1.414zM2.172 3.586l1.414-1.414 1.415 1.414L3.586 5zM18.12 9.465l1.415-1.414 1.414 1.414-1.414 1.415zM15.293 12.293l1.414-1.414 1.414 1.414-1.414 1.414z"></path><path d="M18.12 12.293l1.415-1.414 1.414 1.414-1.414 1.414zM15.293 9.465l1.414-1.414 1.415 1.414-1.415 1.414z"></path></g><!----></svg>